<?xml version="1.0" encoding="UTF-8" ?>
<!DOCTYPE svg PUBLIC "-//W3C//DTD SVG 1.1//EN" "http://www.w3.org/Graphics/SVG/1.1/DTD/svg11.dtd">
<svg width="205pt" height="205pt" viewBox="0 0 205 205" version="1.1" xmlns="http://www.w3.org/2000/svg">
<path fill="#ffffff" d=" M 0.00 0.00 L 205.00 0.00 L 205.00 205.00 L 0.00 205.00 L 0.00 0.00 Z" />
<path fill="#673ab7" d=" M 111.90 26.76 C 110.72 20.21 116.25 13.44 122.92 13.29 C 129.31 12.50 136.12 17.46 136.55 24.02 C 136.89 27.74 135.28 31.53 132.30 33.81 C 130.72 34.95 128.95 35.80 127.10 36.39 C 123.01 37.19 118.58 36.32 115.42 33.52 C 113.59 31.67 112.51 29.26 111.90 26.76 Z" />
<path fill="#d1c4e9" d=" M 111.90 26.76 C 112.51 29.26 113.59 31.67 115.42 33.52 C 100.90 43.35 86.75 53.71 72.22 63.53 C 72.46 65.89 72.82 68.27 72.63 70.65 C 72.35 73.69 70.08 75.92 68.21 78.12 C 71.80 89.17 75.90 100.05 79.75 111.02 C 77.99 111.00 76.23 110.99 74.47 110.99 C 70.71 100.82 67.24 90.54 63.61 80.31 C 61.80 80.34 59.99 80.36 58.18 80.38 C 48.53 102.60 39.20 124.96 29.62 147.22 C 32.58 150.06 35.63 153.57 34.94 158.02 C 34.74 166.16 25.11 171.41 17.89 168.25 C 11.10 165.97 7.91 156.90 12.11 151.01 C 14.84 146.76 20.05 145.27 24.86 145.54 C 33.08 126.50 41.20 107.41 49.30 88.31 C 50.54 85.24 52.15 82.29 52.98 79.06 C 51.82 76.39 48.85 74.70 48.37 71.65 C 46.44 65.19 51.36 58.04 57.94 57.13 C 61.73 56.17 65.36 57.94 68.75 59.38 C 82.27 49.65 95.63 39.68 109.50 30.46 C 110.89 29.68 111.41 28.17 111.90 26.76 Z" />
<path fill="#d1c4e9" d=" M 127.10 36.39 C 128.95 35.80 130.72 34.95 132.30 33.81 C 134.38 39.39 137.76 44.34 140.39 49.66 C 145.47 58.74 150.16 68.03 155.09 77.19 C 159.83 76.89 165.21 77.66 168.25 81.74 C 170.92 84.64 171.15 88.87 170.29 92.53 C 169.36 95.46 166.84 97.40 164.62 99.33 C 168.61 114.71 172.49 130.12 176.62 145.46 C 180.36 145.61 184.36 146.15 187.17 148.87 C 193.11 153.78 191.57 164.48 184.55 167.65 C 176.98 172.15 165.41 166.11 166.32 156.93 C 165.89 152.75 169.01 149.66 171.81 147.07 C 168.24 133.05 164.44 119.09 160.99 105.05 C 160.65 103.54 160.08 102.11 159.38 100.74 C 155.19 100.71 150.80 99.26 148.31 95.70 C 145.90 92.94 145.99 89.01 146.51 85.61 C 146.91 82.76 151.11 80.74 149.26 77.73 C 141.69 64.05 134.80 50.00 127.10 36.39 Z" />
<path fill="#673ab7" d=" M 112.60 53.59 C 120.18 53.62 127.76 53.54 135.33 53.64 C 135.35 71.78 135.38 89.91 135.33 108.05 C 134.70 112.79 134.93 117.71 133.26 122.27 C 130.37 131.38 122.99 138.62 114.31 142.34 C 106.98 145.55 98.79 145.89 90.92 145.33 C 89.43 145.11 87.94 144.89 86.45 144.65 C 78.12 143.15 69.85 139.16 64.79 132.18 C 60.35 126.12 59.06 118.38 59.21 111.03 C 64.30 110.97 69.38 111.01 74.47 110.99 C 76.23 110.99 77.99 111.00 79.75 111.02 C 80.20 111.02 81.11 111.03 81.56 111.04 C 81.56 116.08 82.67 121.82 87.00 124.98 C 92.99 129.33 102.46 129.28 107.60 123.59 C 111.38 119.79 112.58 114.20 112.54 109.01 C 112.63 90.54 112.50 72.06 112.60 53.59 Z" />
<path fill="#d1c4e9" d=" M 86.45 144.65 C 87.94 144.89 89.43 145.11 90.92 145.33 C 94.25 148.81 94.46 154.32 96.59 158.59 C 101.59 158.92 107.19 160.66 109.42 165.60 C 113.07 172.20 108.12 180.77 100.99 182.08 C 93.24 184.30 84.49 177.07 85.88 168.97 C 86.25 165.23 89.03 162.52 91.78 160.28 C 90.23 154.99 88.07 149.91 86.45 144.65 Z" />
</svg>
